<svg xmlns="http://www.w3.org/2000/svg" height="305" width="170" style="shape-rendering:geometricPrecision;text-rendering:geometricPrecision;image-rendering:optimizeQuality;fill-rule:evenodd;clip-rule:evenodd"><path style="opacity:1" d="M87.5 14.5c22.045-1.285 39.212 7.048 51.5 25 3.781 6.676 5.948 13.843 6.5 21.5a579.398 579.398 0 0 0-2.5 22.5c-4.458 17.794-15.292 29.961-32.5 36.5a406.15 406.15 0 0 0 23.5 24.5c.667 1.667.667 3.333 0 5a95.523 95.523 0 0 0-7.5 5.5 80.499 80.499 0 0 1 5.5 6.5 144.244 144.244 0 0 1-1.5 23.5c2.485 3.823 4.985 7.656 7.5 11.5 3.787 10.062.287 15.729-10.5 17-4.312.105-7.645-1.562-10-5l-1 3.5a261.813 261.813 0 0 1 1.5 23.5l-2.5 2.5a255.38 255.38 0 0 0-17 1.5c.5 13.995.833 27.995 1 42 8.492-2.583 17.158-3.416 26-2.5 5.051 4.206 5.051 8.54 0 13-10.869 3.034-21.369 1.868-31.5-3.5a620.761 620.761 0 0 1-1.5-49h-19a3169.223 3169.223 0 0 1-1.5 49c-9.678 5.03-19.844 6.53-30.5 4.5-5.044-3.104-6.21-7.271-3.5-12.5a9.457 9.457 0 0 1 2.5-1.5c8.842-.916 17.508-.083 26 2.5a600.042 600.042 0 0 1 1-43 98.433 98.433 0 0 1-14-.5 11.339 11.339 0 0 1-3.5-1.5c-.5-7.008-.333-14.008.5-21 .114-2.864-.386-5.53-1.5-8-1.864 4.543-5.364 6.543-10.5 6-3.796-.942-7.296-2.609-10.5-5-1.253-9.001 1.58-16.501 8.5-22.5a141.861 141.861 0 0 1-1.5-24.5l5.5-7a102.054 102.054 0 0 1-7.5-6c-.667-1.333-.667-2.667 0-4L58.5 119C46 113.167 36.833 104 31 91.5a154.163 154.163 0 0 0-6-24C21.955 45.403 30.788 30.57 51.5 23a416.875 416.875 0 0 1 36-8.5Zm23 33a122.52 122.52 0 0 0-22-13.5c-3.992-1.177-5.658.323-5 4.5a101.869 101.869 0 0 0-13-5.5c-2-.667-4-.667-6 0a55.361 55.361 0 0 0-8.5 9.5c-6.056-1.818-11.056-.151-15 5a82.724 82.724 0 0 0-9 19C28.928 49.142 35.428 36.975 51.5 30a78.311 78.311 0 0 1 13-2c19.341-9.203 38.342-8.537 57 2 9.358 6.988 14.858 16.155 16.5 27.5-3.356-7.9-8.856-13.733-16.5-17.5-3.597-1.276-7.264-1.61-11-1-1.074.739-1.741 1.739-2 3 .82 1.8 1.486 3.634 2 5.5Zm-44-8c7.92 1.29 14.253 5.123 19 11.5 5.048.97 7.882-1.197 8.5-6.5a90.135 90.135 0 0 1 19.5 14c1.883-.376 3.383-1.376 4.5-3 .777-2.93.61-5.763-.5-8.5 6.93 1.92 11.764 6.42 14.5 13.5 9.097 25.644.93 43.477-24.5 53.5-23.3 7.873-44.134 3.707-62.5-12.5-6.579-7.071-9.579-15.404-9-25 1.983-10.465 6.483-19.631 13.5-27.5 2.342-1.398 4.675-1.065 7 1 1.333.667 2.667.667 4 0a33.241 33.241 0 0 1 6-10.5Zm-2 82c12.93 3.372 25.93 3.872 39 1.5l23 23a86.097 86.097 0 0 1-9 6.5 137.538 137.538 0 0 1-9-10.5c-1.612-.72-3.112-.554-4.5.5a12.494 12.494 0 0 0 0 7l11.5 44a3.647 3.647 0 0 1-1 1.5c-20.664.5-41.33.667-62 .5a627.376 627.376 0 0 1 11.5-48c1.583-4.6.083-6.434-4.5-5.5a222.209 222.209 0 0 0-9.5 10.5 119.489 119.489 0 0 1-8.5-6 407.793 407.793 0 0 1 23-25Zm-11 38a144.485 144.485 0 0 1-7.5 28l-3-2a75.152 75.152 0 0 1-1-22c1.51-1.708 3.01-3.374 4.5-5 2.222 1.869 4.555 2.202 7 1Zm67-1c1.264 1.77 2.764 3.437 4.5 5a85.388 85.388 0 0 1-1 22c-1.714 1.425-3.047 1.092-4-1l-6.5-24c2.439.469 4.772-.198 7-2Zm-81 34c6.038 1.248 6.37 3.415 1 6.5 2.299 9.215-.035 10.715-7 4.5a86.763 86.763 0 0 1 6-11Zm90 13c-1.02 1.454-2.187 1.787-3.5 1l-1-8c-3.222-2.196-3.055-4.196.5-6 3.85 2.659 6.517 6.325 8 11a16.332 16.332 0 0 1-4 2Zm-72-3h52a677.198 677.198 0 0 0 2 29 165 165 0 0 0-21.5 2 634.45 634.45 0 0 1-3-25c-2-1.333-4-1.333-6 0-.758 7.7-1.591 15.366-2.5 23-7.303.672-14.637.672-22 0 .378-9.665.711-19.331 1-29Zm-14 82c4.145-.17 8.145.497 12 2-3.284 1.157-6.618 1.324-10 .5-1.256-.417-1.923-1.25-2-2.5Zm72 0a13.116 13.116 0 0 1 7 1 4.457 4.457 0 0 1-2 1.5c-3.862.913-7.528.58-11-1 2.208-.191 4.208-.691 6-1.5Z"/><path style="opacity:1" d="M62.5 65.5c3.985.13 5.318 1.963 4 5.5 2.493 3.308 2.66 6.808.5 10.5-2.592 1.482-4.925 1.148-7-1-.667-4-.667-8 0-12a10.521 10.521 0 0 0 2.5-3ZM105.5 65.5c3.985.13 5.318 1.963 4 5.5 2.491 2.968 2.657 6.135.5 9.5-2.333 2.667-4.667 2.667-7 0-2.4-5.603-1.566-10.603 2.5-15ZM83.5 82.5c5.552.41 7.718 3.41 6.5 9-1.787 2.458-4.12 4.124-7 5-1.732-.234-2.566-1.234-2.5-3 .554-2.128 1.887-3.628 4-4.5-2.184-1.898-2.517-4.064-1-6.5ZM100.5 97.5c3.638-.763 5.138.57 4.5 4-10.933 11.531-23.1 13.031-36.5 4.5-5.852-4.772-5.186-7.105 2-7 6.198 6.49 13.53 8.157 22 5 3.287-1.467 5.954-3.634 8-6.5Z"/></svg>