<svg version="1.0" xmlns="http://www.w3.org/2000/svg" width="166.667" height="406.667" viewBox="0 0 125 305"><path d="M63 15.1C43 19.5 29.1 23.4 23.9 26 12.5 31.8 5.7 41 4 53.2 3 60.3 3.4 64.6 6 74c1 3.6 2.3 9 3 12.1 1.2 6.2 6.3 15.4 11.3 20.8 2.9 3 13 10.3 16 11.4.7.3-4.5 6.3-11.5 13.4C17 139.5 12 145.3 12 146.5c0 1.1 1.7 3.4 3.7 5.1l3.7 3.1-2.9 3.7-2.8 3.7.7 12 .7 12-2.7 3.2c-3.8 4.5-5.4 8.8-5.4 14.6 0 4.9.1 5.1 4.2 7.2 5.5 2.8 11.2 2.8 14.2 0 1.2-1.1 2.5-2.1 2.9-2.1.4 0 .7 6.3.7 13.9 0 16-.6 15.1 10.1 15.1H46v10.8c0 6-.3 15.7-.7 21.6-.6 10.3-.7 10.7-2.7 10.1-1.2-.4-6.9-.9-12.7-1.2-9-.5-10.8-.3-12.2 1.2-2.6 2.5-2.2 7.7.9 10.6 2.3 2.1 3.4 2.4 10.7 2.4 7.5 0 17-2 20.5-4.3 1-.7 1.4-6.9 1.9-25l.6-24.2h18.6l.5 5.2c.3 2.9.7 13.8.9 24.2.3 14.6.7 19 1.8 19.7 6 3.9 23.6 5.6 29.4 2.8 3.9-1.9 5.4-6.1 3.4-9.7-1.4-2.6-1.7-2.7-10.9-2.7-5.2 0-11.4.4-13.7.8l-4.3.9v-41.9l8.3-.8c4.5-.4 8.8-1.2 9.5-1.8 1.1-.8 1.2-3.9.6-14.5l-.7-13.5 3.1 2.3c4.1 3.1 13 2.5 16.7-1 4.1-3.8 3.5-10.1-1.6-18l-4-6.2.7-11.9c.7-11.8.7-11.8-2.1-15.4-2.9-3.9-2.8-4.3 2.8-7.6 3.7-2.1 2.1-6.1-5.9-13.9-4.1-4.1-9.3-9.6-11.5-12.2l-4-4.7 6.2-3.2c11.7-6.3 19.8-15.6 23.9-27.5 2.9-8.2 4.7-28.9 3.3-35.9C119.7 36.7 105 21.7 87 16.6c-7.3-2-18.4-2.7-24-1.5zm28.8 10.8c10.2 4 16.9 10.1 21.2 19.3 3.5 7.4 3.9 10.6.7 6.3-6.1-8.4-13.4-12.8-20.5-12.3l-4.7.3.2 3.8.2 3.7-5.7-3.8C72.8 36.1 63 32 63 34.7c0 .5-.4 1.4-.8 2.1-.7 1-2.1.7-6.6-1.3-8.5-3.8-11.5-3.4-16.5 2-3.7 4-4.6 4.5-8.5 4.5-6.3 0-9.9 3.4-15.2 14.3-3.9 8-4.4 8.6-5 6.2-1-4 .4-12.3 3.1-17.4C18 36.3 26 30.7 36.5 29c3.9-.6 8.6-1.8 10.5-2.6 8.3-3.5 13.5-4.3 25-4 10.2.2 12.4.7 19.8 3.5zM53.3 42c2.4 1.2 5.9 3.6 7.7 5.5 4.3 4.4 8.2 4.7 10.7.7.9-1.5 1.8-2.9 1.9-3.1.4-.5 13.8 8.6 15.8 10.8 3.9 4.3 7.6 2 7.6-4.6V47l3.9 2c8.3 4.2 13.2 15.2 13.3 29.7.1 7.3-.3 9-3.1 14.7-5.5 11.3-18.3 19.9-34.3 23.1-13.6 2.7-25.3 1.3-36.9-4.5-23.6-11.7-30.3-28.1-20.1-49.3 4.9-10.2 9.3-15.2 12.5-14.2 6 1.9 7.5 1.8 8.2-.7 1.3-3.9 4.5-7.8 6.6-7.8 1 0 3.9.9 6.2 2zm13.5 81.6 16.4.1 10.9 10.9c6 6 10.9 11.1 10.9 11.5 0 .3-1.9 1.9-4.1 3.5l-4.2 2.9-4.7-5.3c-5.8-6.5-9-7-9-1.5 0 2 2.5 13.2 5.5 24.8 3 11.7 5.5 22 5.5 22.9 0 1.4-3.1 1.6-31 1.6-24.1 0-31-.3-31-1.3 0-1.8 6.4-29.7 9.3-40.2 1.3-5 2.2-9.6 2-10.3-1-2.9-5.2-1.1-9.6 4l-4.5 5.2-4.1-2.7c-2.3-1.5-4.1-3.1-4.1-3.5 0-.5 5-6.1 11.2-12.6 11.1-11.8 11.2-11.8 14.7-11 2 .4 11 .9 19.9 1zM32 160.7c.5.5-4.1 19.1-5.9 23.5-1.3 3.5-3.7 2.8-4.5-1.4-.3-1.7-.6-6.7-.6-11.1 0-6.9.3-8.4 2.1-10.3 1.7-1.8 2.8-2.2 5.3-1.7 1.7.3 3.3.8 3.6 1zm69.7.5c2 1.9 2.3 3.1 2.3 10.3 0 4.6-.3 9.7-.6 11.4-.6 3.1-2.7 4.1-3.9 2-.7-1-6.5-21.8-6.5-23.1 0-.5 4-2.4 5.9-2.7.3-.1 1.5.9 2.8 2.1zm-79 33.4c.4 1-.1 2.2-1 2.9-1.1.8-1.7 2.7-1.7 5.4 0 4.5-1.1 5.1-4.8 2.5-2.8-1.9-2.8-2.6.4-8 2.7-4.6 5.9-5.8 7.1-2.8zm85 .6c2.3 2.6 4.3 6.1 4.3 7.7 0 .9-5 4.1-6.3 4.1-.3 0-.7-1.9-1.1-4.2-.4-2.3-1.2-4.8-1.8-5.5-1.3-1.6-.4-4.3 1.5-4.3.7 0 2.3 1 3.4 2.2zM89 207.7c0 2.7.3 9.1.6 14.4l.7 9.6-10.4.6c-5.6.4-10.5.5-10.7.2-.4-.4-3.1-20.3-3.2-23.3 0-.7-1.3-1.2-2.9-1.2-3.3 0-3-.8-4.9 17l-.7 6.5-10.7.3-10.8.3V203h53v4.7zm9.7 76.9c3.8 1 1.5 2.4-4 2.4-6.1 0-5.4-1.5 1.3-2.9.3 0 1.5.2 2.7.5zM32.5 286c1.5.6.6.9-3.2.9-2.8.1-5.5-.4-5.8-.9-.8-1.2 6.1-1.2 9 0z"/><path d="M40.1 67.4c-.7.9-1.1 3.8-.9 7.8l.3 6.3 3.3.3c4.1.4 4.7-1.1 3.6-9.1-.8-5.2-1.2-6.2-3-6.5-1.1-.2-2.6.4-3.3 1.2zM82.6 68.2c-1.9 2.7-2.1 9.7-.3 12.2 1.6 2.1 5.5 1.8 7-.5.7-1.1.7-3.7.1-7.5-.7-4.9-1.3-6-3.1-6.2-1.3-.2-2.7.5-3.7 2zM62.3 86.4c.4 2.5.1 3.6-.9 4-.8.3-1.4 1.7-1.4 3.1 0 3.2 2.7 3.3 6.4.4 4.9-3.8 3-10.9-3-10.9-1.3 0-1.6.7-1.1 3.4zM78.4 99.1c-6.5 7.2-21.9 8-27.5 1.3-1.5-1.9-5.8-1.8-6.6.1-.8 2.2 2.4 5.4 8.2 8.1 6.3 3 15.2 3.2 21 .5 6-2.7 10.7-7 10.3-9.5-.4-2.9-3-3.1-5.4-.5z"/></svg>