<svg xmlns="http://www.w3.org/2000/svg" height="305px" width="170px" style="shape-rendering:geometricPrecision;text-rendering:geometricPrecision;image-rendering:optimizeQuality;fill-rule:evenodd;clip-rule:evenodd"><path style="opacity:1" d="M59.5 6.5c21.443-2.538 41.777.962 61 10.5 20.207 11.957 26.04 28.79 17.5 50.5a51.029 51.029 0 0 1-8 9c-.667 1.667-.667 3.333 0 5 16.803 11.623 28.803 26.956 36 46 3.978 12.796 2.312 24.796-5 36a357.236 357.236 0 0 1-23 22c-3.447 6.863-4.28 14.03-2.5 21.5-.947 3.072-2.947 4.072-6 3-12.182-10.229-15.182-22.729-9-37.5-4.641-4.305-9.307-8.639-14-13a67.229 67.229 0 0 0-.5 20c7.571 6.109 10.238 13.775 8 23a104.416 104.416 0 0 1-8.5 4.5 178.869 178.869 0 0 0 18 31c-.259 1.261-.926 2.261-2 3a647.86 647.86 0 0 1-36 .5 655.776 655.776 0 0 0 3 40 80.122 80.122 0 0 1 26-2.5c4.328 2.89 5.161 6.723 2.5 11.5-1.319 1.987-3.152 3.154-5.5 3.5-10.09 1.115-19.59-.718-28.5-5.5a1342.476 1342.476 0 0 1-4.5-47h-15a629.812 629.812 0 0 1-3.5 47c-9.977 5.532-20.477 7.032-31.5 4.5-6.572-4.855-6.572-9.522 0-14 8.805-.904 17.305.262 25.5 3.5a1485.955 1485.955 0 0 0 3.5-41c-11.338.167-22.672 0-34-.5-1.825-1.466-2.325-3.299-1.5-5.5A168.042 168.042 0 0 0 37.5 207c-4.605-1.768-7.605-4.935-9-9.5 1.308-6.949 4.475-12.949 9.5-18l1-25a523.78 523.78 0 0 1 18-25 28.043 28.043 0 0 1 1.5-5c-13.04-3.544-24.208-10.21-33.5-20-6.386-8.195-9.72-17.528-10-28C.145 62.233-1.022 47.066 11.5 31c5.026-4.013 10.693-6.68 17-8 3.898-7.8 10.232-12.467 19-14a157.512 157.512 0 0 0 12-2.5Zm5 6c21.392-1.825 41.059 3.008 59 14.5 13.716 12.37 15.55 26.203 5.5 41.5a83.897 83.897 0 0 0-6.5-13.5c-21.179.425-41.845-2.575-62-9A64.495 64.495 0 0 1 49 39.5c-3.39 1.167-4.223 3.334-2.5 6.5-1.689 3.35-4.355 5.683-8 7a124.073 124.073 0 0 1-17 5A55.058 55.058 0 0 0 16 68.5c-7.698-9.625-8.365-19.625-2-30 5.412-6.14 12.245-8.974 20.5-8.5a33.995 33.995 0 0 0 1.5-7.5c4.474-3.83 9.64-6.33 15.5-7.5a288.83 288.83 0 0 0 13-2.5Zm-12 37c8.837 4.333 18.17 7.167 28 8.5a403.29 403.29 0 0 0 38 4c8.161 16.859 5.161 31.525-9 44-25.844 17.2-51.177 16.534-76-2C22.341 92.525 19.508 79.359 25 64.5A91.996 91.996 0 0 0 47.5 56c2.266-1.758 3.932-3.925 5-6.5Zm76 40c15.563 10.094 26.063 24.094 31.5 42 3.319 15.216-1.181 27.716-13.5 37.5-11.107 6.391-17.607 15.891-19.5 28.5a31.147 31.147 0 0 1-3.5-10.5 133.725 133.725 0 0 1 4.5-17.5c-16.868-11.548-27.368-27.382-31.5-47.5 9.281-4.604 17.448-10.771 24.5-18.5a47.317 47.317 0 0 0 7.5-14Zm-40 33c1.15.291 1.816 1.124 2 2.5 1.207 4.928 2.374 9.762 3.5 14.5-3.959-4.435-6.792-9.435-8.5-15a44.293 44.293 0 0 0 3-2Zm-23 2c4.599-.3 9.099.033 13.5 1a393.539 393.539 0 0 0 11.5 61 31.234 31.234 0 0 1-3.5 6c-1.9 6.602.6 9.935 7.5 10a342.034 342.034 0 0 1 11.5 22 48.932 48.932 0 0 0 6.5 9.5c-27 .667-54 .667-81 0a213.152 213.152 0 0 0 14-27.5c2.46-1.291 3.96-3.291 4.5-6 6.03 1.64 8.697-.693 8-7a62.037 62.037 0 0 1-5.5-8 456.317 456.317 0 0 0 13-61Zm23 20a73.855 73.855 0 0 1 10.5 13 81.228 81.228 0 0 1-.5 22 3.647 3.647 0 0 0-1.5 1 317.293 317.293 0 0 1-8.5-36Zm-35 1c-.769 11.016-2.936 22.016-6.5 33a3.647 3.647 0 0 1-1.5 1 81.228 81.228 0 0 1-.5-22 123.218 123.218 0 0 0 8.5-12Zm-13 40c3.27-.198 5.27 1.302 6 4.5-3.944 1.965-4.944 4.965-3 9-3.55 2.276-6.217 1.443-8-2.5a82.622 82.622 0 0 1 5-11Zm59 0c1.644-.214 3.144.12 4.5 1a52.526 52.526 0 0 1 5.5 10.5c-6.917 5.46-9.75 3.626-8.5-5.5a11.339 11.339 0 0 0-3.5-1.5 9.175 9.175 0 0 0 2-4.5Zm-68 99a44.615 44.615 0 0 1 13 2.5c-4.913 2.287-9.58 1.954-14-1 .556-.383.89-.883 1-1.5Zm75 0c5.144-.103 5.81 1.063 2 3.5a36.872 36.872 0 0 1-11-1 547.49 547.49 0 0 0 9-2.5Z"/><path style="opacity:1" d="M48.5 66.5c1.644-.213 3.144.12 4.5 1 .336 3.038 1.17 5.871 2.5 8.5-.123 3.434-1.79 5.601-5 6.5-2.266-.43-3.766-1.764-4.5-4-1.112-4.481-.279-8.481 2.5-12ZM90.5 66.5c1.7-.16 3.366.007 5 .5a29.917 29.917 0 0 0 2.5 6.5c.586 3.242-.247 6.075-2.5 8.5-2.808.92-4.975.087-6.5-2.5-.945-4.56-.445-8.894 1.5-13ZM70.5 82.5c6.295.484 8.462 3.817 6.5 10-2.141 2.991-4.975 4.158-8.5 3.5-1.723-3.408-.723-5.741 3-7-1.958-2.003-2.29-4.17-1-6.5ZM87.5 97.5c2.76-.585 4.427.415 5 3-7.82 10.982-18.154 14.149-31 9.5l-6-4c-4.503-4.364-3.836-6.697 2-7 10.526 10.035 20.526 9.535 30-1.5Z"/></svg>
