<svg version="1.0" xmlns="http://www.w3.org/2000/svg" width="178.667" height="406.667" viewBox="0 0 134 305"><path d="M50.3 90.9c-8.9 2.5-12.8 4.4-14.9 7.6-.9 1.4-3.7 3.4-6.3 4.6C20.2 107 15 114.9 15 124.7c0 2.6-.4 3.3-2 3.3-2.9 0-4.3 3.6-3.8 9.8.4 4.9.1 6.2-2.5 10.3-4.1 6.7-4.8 15.7-1.6 21.4 7.7 14 7.9 14.4 7.2 20.6l-.6 5.9h3.1c5.5 0 12.4-11.1 13.7-22.1l.6-5.7 4.4-.6c3.3-.5 5.3-.2 8.2 1.2 2.1 1.1 5.7 2.5 8.1 3.2 5.8 1.8 5.5 3.7-2.3 14.5l-6.5 8.9v8.7c0 6.6-.4 9-1.6 10-2.3 1.9-4.4 6.4-4.4 9.5 0 1.4.9 4.3 2.1 6.4l2.1 3.7-5.2 10.2c-2.9 5.6-4.9 10.8-4.6 11.6.4 1.2 2.9 1.5 12.7 1.5h12.2l-.6 9.8c-.4 5.3-.7 11.1-.7 12.9v3.1l-9.6-.5c-8.7-.6-9.8-.4-11 1.2-2 2.7-1.7 5.8.6 8.3 1.7 1.8 3.2 2.2 8.4 2.2 3.4 0 8.5-.7 11.3-1.5l5-1.5 1.2-10c.6-5.6 1.1-13 1.1-16.5V258h10v4.3c0 2.3.7 9.7 1.5 16.2.8 6.6 1.5 12.1 1.5 12.2 0 1 10.8 3.3 15.5 3.3 7.2 0 10.5-1.8 10.5-5.9 0-5.6-1.7-6.5-11.7-5.8l-9.1.6-.6-3.7c-.3-2-.6-7.8-.6-12.9v-9.2l12.2-.3c10.5-.3 12.3-.5 12.6-1.9.2-1-2-5.7-4.7-10.5-2.8-4.9-5.1-9.6-5.1-10.6 0-.9 1-2.4 2.3-3.3 3.3-2.3 3.1-10-.4-14.6-2.2-2.9-2.8-4.9-3.4-12.7l-.7-9.2-6.4-8.5c-6.6-8.6-7.9-12.5-4.5-12.5 1 0 4.9-1.5 8.7-3.4 7.2-3.6 7.2-3.6 17.2-1 .7.2 1.2 2.1 1.2 5.2 0 11.3 6.4 22.2 13.1 22.2h3l-.7-6.5c-.6-6-.5-6.7 2.4-11.2 8.3-12.9 8.4-23 .3-33.2-2.6-3.2-2.8-4.2-2.4-8.4.6-4.9-1.3-8.7-4.2-8.7-.8 0-1.5-2.5-1.9-6.6-1.2-12.1-7-19.9-18.6-25.3-9.5-4.4-17.2-6.2-29-6.7-8.3-.3-12 0-17.7 1.5zM85 98.6c10 3.2 17.4 7.6 20.5 12.2 3.4 5.1 4.2 11.7 2.1 16.7l-1.7 3.9-2.3-3.5-2.4-3.5-13-1.2c-16.5-1.5-26.2-3.6-33.4-7.4-6.6-3.5-8.8-3.2-8.8 1.2 0 2.7-.6 3.3-4.6 5.1-2.6 1-6.6 2.4-8.9 3-3 .7-4.6 1.8-5.4 3.5-.6 1.4-1.5 2.2-2.1 1.9-1.5-1-3.2-8.4-2.5-11.5 1-4.4 7.3-9.6 12.7-10.4 3.9-.6 4.6-1.1 5.7-4.1 1-2.8 2.1-3.7 6.9-5.5 3.1-1.2 7.5-2.6 9.7-3 6.1-1.3 19.1-.1 27.5 2.6zm-26.5 26.3c3.3 1 13.4 2.9 22.5 4.2 9.1 1.2 16.8 2.7 17.1 3.2.4.5 1 3.1 1.3 5.8 2.2 16.5-12.9 29.8-34 29.9-8.2 0-15-2.2-22.6-7.3-9.4-6.3-13.3-15.1-11.2-24.9.9-3.9 1.1-4.1 6.4-5.5 3-.7 7.1-2.7 9-4.3 4.2-3.5 4-3.4 11.5-1.1zm56.5 11.2c0 .5-.7.9-1.5.9-1.5 0-2-1.2-.9-2.3.8-.8 2.4.1 2.4 1.4zm-96.7-.4c-.7.2-1.9.2-2.5 0-.7-.3-.2-.5 1.2-.5s1.9.2 1.3.5zm7 11.4c.3 2.3 1.9 6.3 3.6 9 1.6 2.7 2.7 5 2.3 5.3-.4.2-2.3.7-4.3 1.1l-3.7.7-1.2 7.6c-1.1 6.7-2.9 12.6-3 9.7 0-.6-2-4.2-4.5-7.9-6.7-10.2-6.3-16.5 1.6-25.1 5.5-6 8.4-6.1 9.2-.4zm88-2.5c4.5 2.3 6.6 4.4 8.8 8.6 3.1 6.1 2.5 10.3-3 19.7-2.6 4.6-5.1 7.9-5.4 7.5-.3-.5-1.1-4.6-1.8-9.1l-1.2-8.1-3.6-.7c-2-.4-4.4-1.1-5.3-1.6-1.7-.9-1.6-1.3.8-4.9 1.5-2.2 2.9-6 3.2-8.5.5-5.1 2-5.7 7.5-2.9zM67 177.9c0 1.8.8 3.5 2 4.4 1.1.7 2.2 3 2.6 5.3.5 3.6.3 4.1-2 5.2-1.7.7-2.6 1.9-2.6 3.4 0 3.3 1.1 4.6 4.4 5 2.8.3 3.1.7 4.3 7.3 1 5.1 1.1 8.1.3 11.2-1.5 6.2-1.3 6.7 2.6 9.5 4.4 3.2 13 17.8 11.2 19-.7.4-11.6.7-24.3.7-15.5 0-22.2-.3-20.6-1 2.4-.9 2.5-2.4.7-8.4-.4-1.1-.2-2.6.3-3.4.7-1.1 1.3-.9 3.1.9 1.2 1.2 2.8 1.9 3.7 1.6.8-.3 1.9-.6 2.5-.6.6 0 .8-2.1.6-5.2-.2-3.5.1-5.3 1-5.5.6-.3 1.2 0 1.2.6s1.6 1.1 3.5 1.1c3.9 0 5.1-1.5 4.1-5.4-.7-3-3.8-3.8-6.6-1.9-1.2.8-2.3 1.3-2.4 1.2-.9-1.1-1.3-14.9-.5-15.4.5-.4.9-.2.9.4 0 2 3.7 3.2 6.5 2.1 2.2-.8 2.6-1.5 2.3-4.2-.2-2.8-.8-3.4-3.1-3.6-1.6-.2-3.5.3-4.4 1-1.5 1.1-1.6 1-1-1.2.4-1.4.7-4.2.7-6.2 0-3.5.2-3.8 3.6-4.4 1.9-.4 3.8-1.3 4.1-2.1.8-2-1.4-6.3-3.2-6.3-1.1 0-1.5-1.1-1.5-4 0-3.8.2-4 3-4 2.7 0 3 .3 3 2.9zm-17.4 23.6-1.4 5-.1-4.2c-.1-4.8 2-11.2 2.6-7.8.2 1.1-.3 4.2-1.1 7zm34.3 2.4-.1 6.6-1.9-7c-1-3.9-1.8-7.9-1.8-9 0-1.9.1-1.9 1.9.4 1.6 1.8 2 3.7 1.9 9zM46 220.1c0 2.5-1.7 5.9-3 5.9s-1.3-2.2 0-5.4c1.1-3.1 3-3.4 3-.5zm44 4c0 2.4-1.2 2.4-3.4 0-1.2-1.3-1.6-2.7-1.1-4.2l.8-2.3 1.8 2.3c1.1 1.3 1.9 3.2 1.9 4.2z"/><path d="M48 134c-1.4 2.6-1.3 8.3.2 9.8 1.7 1.7 4.5 1.5 5.2-.4.8-2.2.7-7.7-.2-9-1.4-2.1-4.1-2.4-5.2-.4zM78.2 133.2c-1.9 1.9-1.5 8.2.6 10.1 2.5 2.3 3.9 2.1 4.8-.6 1.1-3.3.5-8-1.4-9.5-2-1.5-2.5-1.5-4 0zM63 148.4c-1.4 5.1-.8 6.6 2.5 6.6 2.5 0 5.5-3.3 5.5-6.2 0-2.2-2.7-4.8-4.9-4.8-1.3 0-2.2 1.3-3.1 4.4z"/><path d="M52 157.9c0 2.5.7 3.3 4.3 5 2.7 1.3 6.3 2.1 9.6 2.1 7.7 0 16.1-4.8 14.7-8.5-.8-2.2-3.8-1.8-8.7 1-5.5 3.1-6.8 3.1-12.9 0-6.3-3.2-7-3.1-7 .4zM67 213.5c-1.4 3.7.3 6.5 4 6.5 2.4 0 3.1-.5 3.6-2.7.9-3.4-.6-5.7-4-6.1-2-.3-2.8.2-3.6 2.3zM67.7 230.6c-.4.4-.7 2.2-.7 4.1 0 3.8 1.6 4.9 5.6 3.9 2.2-.6 2.5-1.1 2.2-4.4-.3-3.3-.6-3.7-3.3-4-1.7-.2-3.4 0-3.8.4zM58 240.9c-2.1 4.1-.1 7.1 4.8 7.1 3.9 0 4.4-6.6.6-8-3.5-1.4-4.2-1.3-5.4.9zM76.8 241.6c-1.5 3.3-.1 5.8 3.7 6.2 4.9.6 6.6-6.1 1.9-7.8-3.7-1.4-4.3-1.3-5.6 1.6z"/></svg>