<svg version="1.0" xmlns="http://www.w3.org/2000/svg" width="137.333" height="406.667" viewBox="0 0 103 305"><path d="M75 95.7c0 4-1.2 4.2-9.5 2.2-9-2.1-25.4-2.6-33.4-.8-4.2.9-6.5 2.4-14.7 9.7-5.3 4.8-10.2 9.9-11 11.4-2.3 4.5-1.7 12.1 1.6 20 1.6 3.8 3 8.6 3 10.4 0 2.4.6 3.7 1.8 4.1.9.4 4.6 3.7 8.2 7.3 3.6 3.7 7.6 7.5 9 8.4l2.5 1.6-8.3 8.3c-8.8 8.8-9.9 11.5-6 14.6 2 1.7 2.1 1.9.5 4.2-1.3 1.8-1.7 4.6-1.7 11.2 0 7.5-.3 9.4-2.2 11.9-1.1 1.7-2.3 5.2-2.6 7.8-.4 4.2-.1 4.9 2.4 6.9 2.3 1.9 3.8 2.2 7.5 1.9l4.7-.5.8 8.6.9 8.6 5.3.3 5.2.3v28.6l-9.1-.5c-9.9-.5-10.9-.1-10.9 4.9 0 4.8 2 6.1 9.3 6.1 3.7 0 8.9-.8 11.6-1.7l4.9-1.6.7-16.9c.6-14.8.9-17 2.4-17 .9 0 3.2-.3 5.2-.6l3.6-.6.7 11.8c.4 6.6.9 14.5 1.2 17.6l.6 5.7 4.6 1.8c2.7 1 7.4 1.8 11 1.8 5.5 0 6.6-.3 8.3-2.4 2.6-3.2 2.4-6.7-.6-8.7-2-1.3-3.9-1.5-10.5-.9l-8 .7v-27l5.8-.7c3.1-.4 6-1.2 6.4-1.9.4-.6.8-4.5.8-8.7v-7.6l4.8.4c3.8.4 5.2.1 7.6-1.8 2.5-2 2.8-2.7 2.4-6.9-.3-2.6-1.5-6.1-2.6-7.8-1.9-2.5-2.2-4.4-2.2-11.9 0-6.1-.4-9.5-1.4-10.8-1.2-1.7-1.1-2.3 1-4.8 1.3-1.6 2.4-3.4 2.4-4.1 0-.6-3.6-4.7-8-9.1-4.4-4.4-8-8.2-8-8.5 0-.3 1.6-1.4 3.5-2.4 2-1.1 6.7-5.2 10.5-9.3 3.8-4 7.5-7.3 8.3-7.3 1.1 0 1.6-2.1 2-8.3.4-4.5.9-11.8 1.3-16.2.7-9.2-.8-13.5-6.6-19-1.8-1.7-4.1-4.7-5.1-6.8-3.1-5.9-11.9-10.3-11.9-6zm-11.1 9c9.8 2.3 15.1 2.4 15.1.3 0-1.8 1.9-1 2.5 1.1.4 1.1 2.4 3.6 4.5 5.5 4.6 4.2 6.2 7.8 5.8 13.4l-.3 4.3-4-4.2c-5-5.2-9.9-7.1-17.8-7.1-6.9 0-8.1.5-9.1 3.7-.7 2.2-1.1 2.3-14.5 2.3-12.6 0-14.2.2-18.6 2.4-3.7 1.9-5.1 2.2-6.5 1.4-1-.6-2.5-.8-3.5-.4-1.5.5-1.7 1.4-1.1 5.6.4 2.8.3 5-.2 5-1.2 0-5.2-9.6-5.2-12.5 0-1.5 2.9-5.2 8.4-10.8 8-8.2 12.1-11.2 17.6-12.7 4.1-1.2 15.7 0 26.9 2.7zm15.2 21.6c2.5 1.9 4.1 5.7 3.5 8.3-.4 1.6 0 3 1.2 4.2 1.1 1.1 2.2 3.6 2.6 5.6.6 3 .2 4.3-2.4 8.1-4 5.9-11.1 11.1-17.3 13-7.6 2.3-20.4 2-27.3-.6-5.7-2.2-12.7-7.7-16.5-13.1-1.8-2.5-1.9-3.2-.7-8.2 1-4.4 1.7-5.6 3.6-6.1 1.2-.3 2.7-1.6 3.2-2.9.5-1.4 1.9-2.7 3.1-3.1 1.2-.4 11.1-1.3 21.8-1.9 17.3-1 19.6-1.3 19.9-2.9.4-2 3-2.2 5.3-.4zM44.7 176c2.6 2.3 4.3 3 7.7 3 3.3 0 5.2-.7 8.1-3 2.1-1.7 4.1-3 4.6-3 .4 0 3.9 3.5 7.8 7.7 5.3 5.9 6.7 8 5.9 9-1.6 1.9-2.7 1.6-5.5-1.7-3.2-3.9-7.9-4.2-9.3-.6-.7 1.9-.1 4.1 2.5 10.2 1.8 4.4 3.7 9.6 4 11.6l.7 3.8-15.3.2-15.4.2 15.5.6c15.4.5 15.4.5 16.1 3 1.8 6.3 2.9 6-19.6 6-19 0-20.5-.1-20.5-1.8 0-2.7 6-26.6 6.9-27.5.4-.4 3.8-1 7.5-1.4 7-.6 10.1-2.3 4.4-2.3-6.5 0-10.7-1.2-11.3-3.1-1.1-3.4-7.1-2.1-8.6 1.7-1 2.8-4.6 3.3-5.6.8-.4-1.1 1.7-3.9 6.8-9 4-4.1 7.8-7.4 8.2-7.4.5 0 2.5 1.3 4.4 3zm-15.9 25.4c.5 2.4-2.8 13.6-4 13.6-.9 0-1.1-12-.2-14.5.9-2.1 3.8-1.5 4.2.9zm50.8-1.1c.3.8.4 4.5.2 8.3l-.3 6.9-2.3-6.8c-1.3-3.7-2.1-7.4-1.8-8.2.7-1.9 3.5-2 4.2-.2zM23 224.6c0 2.1-1.8 5.4-3 5.4-1.3 0-1.3-2.6 0-5.1 1.3-2.3 3-2.5 3-.3zm62 1.5c1.4 2.5 1.2 3.9-.5 3.9-.8 0-1.5-.9-1.5-1.9 0-1.1-.4-2.3-1-2.6-.5-.3-1-1-1-1.5 0-1.5 3 .1 4 2.1zM70 239v9.1l-6.2-.3-6.3-.3-1-6.9c-.7-4.5-1.6-7.2-2.7-7.9-2.8-1.9-4.5.7-5.2 8.3l-.7 7H35v-18h35v9z"/><path d="M66.6 132.9c-1.2 1.3-1.6 3.2-1.4 6.2.3 3.8.6 4.4 2.7 4.7 1.3.2 2.8-.2 3.2-1 1.4-2.2 1-8.6-.7-10.2-1.9-2-1.7-2-3.8.3zM35.4 134.4c-.3 1.3-.4 3.8-.2 5.7.2 2.7.8 3.5 2.7 3.7 2.8.4 4.1-1.2 4.1-5.1 0-6.1-5.2-9.5-6.6-4.3zM51 145.8c0 1.5-.5 3.3-1.1 3.9-1.8 1.8-.3 4.3 2.4 4.3 3 0 5-2.2 5-5.5 0-3.1-2-5.5-4.4-5.5-1.4 0-1.9.7-1.9 2.8z"/><path d="M62.9 154.6c-3.8 4.6-10.7 5.6-17 2.3-4.7-2.4-7.2-1.9-6.7 1.3.5 3.5 7.2 6.8 13.9 6.8 7 0 14.9-4.4 14.9-8.4 0-1.3-.7-2.7-1.6-3-2.1-.8-2-.8-3.5 1z"/></svg>