<svg xmlns="http://www.w3.org/2000/svg" height="305" width="170" style="shape-rendering:geometricPrecision;text-rendering:geometricPrecision;image-rendering:optimizeQuality;fill-rule:evenodd;clip-rule:evenodd"><path style="opacity:1" d="M107.5 93.5c6.832 1.161 11.166 5.161 13 12 7.311 4.62 10.978 11.287 11 20-1.835 8.647-2.669 17.314-2.5 26-1.825.603-3.659 1.27-5.5 2-4.607 7.649-10.94 13.482-19 17.5l16.5 16.5c-.149 3.516-1.983 6.016-5.5 7.5a11.532 11.532 0 0 1 3.5 4.5 409.14 409.14 0 0 0 0 18c4.256 4.17 5.923 9.17 5 15-4.127 5.359-9.127 6.359-15 3a45.98 45.98 0 0 0 .5 12c.212 2.511-.455 4.678-2 6.5a73.402 73.402 0 0 0-11.5 1.5 318.844 318.844 0 0 0 .5 27 219.298 219.298 0 0 0 13.5-2c8.417 2.171 9.584 6.338 3.5 12.5-7.933 1.706-15.433.539-22.5-3.5a243.31 243.31 0 0 1-1.5-34c-3.937-.293-7.77.04-11.5 1l-1 33c-7.41 3.688-15.243 4.854-23.5 3.5-3.532-3.39-3.866-7.057-1-11 6.332-.941 12.499-.441 18.5 1.5.5-9.661.666-19.328.5-29a50.464 50.464 0 0 1-10-.5l-1.5-1.5-1-17c-5.873 3.359-10.873 2.359-15-3-.739-5.784.928-10.784 5-15 .33-6.021.33-12.021 0-18a36.012 36.012 0 0 1 3.5-4.5 12.135 12.135 0 0 0-4.5-3.5c-.667-1.667-.667-3.333 0-5L64.5 170c-6.811-4.311-12.478-9.811-17-16.5-4.786-.63-6.12-3.13-4-7.5a208.216 208.216 0 0 1-5.5-12.5c-3.212-8.512-1.379-15.679 5.5-21.5a109.524 109.524 0 0 0 13-12 32.459 32.459 0 0 1 7-3c14.654-2.707 28.987-1.54 43 3.5-.202-2.45.131-4.783 1-7Zm-37 8c12.076-.318 23.743 1.682 35 6 3.074.05 5.241-1.283 6.5-4 1.117 1.449 1.784 3.116 2 5 8.314 4.642 11.647 11.642 10 21-3.147-2.403-5.98-5.236-8.5-8.5-7.045-3.704-14.378-4.371-22-2-.88 1.356-1.213 2.856-1 4.5-8.007-.166-16.007 0-24 .5-5.263.085-9.763 1.918-13.5 5.5-2.895-4.135-5.395-3.968-7.5.5l2 7c-.35 1.257-1.017 1.591-2 1a67.703 67.703 0 0 1-5-12.5 28.854 28.854 0 0 0 1.5-4A74.678 74.678 0 0 0 58.5 107c3.784-2.529 7.784-4.362 12-5.5Zm36 23c7.134 1.596 9.634 5.929 7.5 13 1.011.837 2.178 1.17 3.5 1-.346 3.102.321 5.935 2 8.5-7.089 13.717-18.422 20.551-34 20.5-14.916-.12-25.916-6.62-33-19.5a27.147 27.147 0 0 0 3-10.5c3.795.541 5.795-1.125 6-5a28.907 28.907 0 0 1 4-1.5 455.303 455.303 0 0 1 36-2c3.401.266 5.067-1.234 5-4.5Zm1 59a24.551 24.551 0 0 0 5 5l-4 3c-.607-.124-.94-.457-1-1a81.338 81.338 0 0 0-5-5.5c-5.007-1.335-7.34.665-7 6 3.64 6.675 6.307 13.841 8 21.5-49.315 1.333-49.315 1.999 0 2l2 8h-42a375.303 375.303 0 0 1 7-29c7.82-1.493 15.82-2.327 24-2.5-7.853-.132-15.52-.965-23-2.5.415-2.448-.585-3.781-3-4a20.023 20.023 0 0 0-5 2.5c-1.344 5.343-3.678 5.843-7 1.5a354.45 354.45 0 0 1 15.5-16c2.112 1.108 3.946 2.608 5.5 4.5 3.38 2.245 7.047 2.912 11 2l8.5-6.5a618.047 618.047 0 0 0 10.5 11Zm-50 15c2.067.032 3.4 1.032 4 3a84.204 84.204 0 0 1-4.5 15c-2.106-6.101-1.94-12.101.5-18Zm52 0c1.29.558 2.123 1.558 2.5 3a38.064 38.064 0 0 1-.5 15l-5-16a44.093 44.093 0 0 0 3-2Zm-56 24c.997-.03 1.664.47 2 1.5a16.149 16.149 0 0 1-3 6.5c-1.22-.387-1.886-1.22-2-2.5a44.027 44.027 0 0 0 3-5.5Zm59 0c3.002 1.119 5.002 3.286 6 6.5-2.743 2.215-3.743 1.882-3-1a25.194 25.194 0 0 1-3-5.5Zm-46 7h35l1 18c-4.336 1.134-8.67 1.134-13 0a102.63 102.63 0 0 1-1.5-13c-2.333-4-4.667-4-7 0a98.432 98.432 0 0 0-.5 14 82.733 82.733 0 0 1-14-1v-18Z"/><path style="opacity:1" d="M68.5 131.5c1.89-.203 3.39.463 4.5 2 1.695 3.393 1.695 6.727 0 10-2.267 1.435-4.267 1.102-6-1-.987-3.975-.487-7.641 1.5-11ZM99.5 131.5c1.322-.17 2.489.163 3.5 1 1.753 3.719 1.753 7.386 0 11-4.52 1.663-6.686-.004-6.5-5l.5-4a10.51 10.51 0 0 0 2.5-3ZM83.5 142.5c5.276.793 7.11 3.793 5.5 9-2.877 3.664-5.71 3.831-8.5.5.6-1.605 1.6-2.938 3-4-1.252-1.828-1.252-3.661 0-5.5Z"/><path style="opacity:1" d="M95.5 153.5c4.177-.658 5.677 1.008 4.5 5-7.91 7.872-16.743 9.038-26.5 3.5-3.88-2.847-3.88-5.347 0-7.5a65.266 65.266 0 0 0 8 4.5c5.91 1.208 10.577-.625 14-5.5Z"/></svg>