<svg xmlns="http://www.w3.org/2000/svg" height="305" width="170" style="shape-rendering:geometricPrecision;text-rendering:geometricPrecision;image-rendering:optimizeQuality;fill-rule:evenodd;clip-rule:evenodd"><path style="opacity:1" d="M74.5 89.5c15.896-1.685 30.896 1.148 45 8.5 10.711 6.924 15.378 16.757 14 29.5 4.626.803 6.959 3.636 7 8.5-.115 1.895-.782 3.562-2 5 12.764 12.622 13.264 25.789 1.5 39.5-1.954 4.239-1.787 8.406.5 12.5.167 2.5-1 3.667-3.5 3.5-4.882-1.212-8.215-4.212-10-9-2.603-6.075-3.769-12.409-3.5-19-3.936.022-7.603-.978-11-3-5.264 4.298-11.264 6.965-18 8-.009 1.808.491 3.475 1.5 5l12 16 1 18c5.349 4.703 7.016 10.37 5 17-1.972.805-3.472 2.139-4.5 4a144.88 144.88 0 0 0 11 20c-.029 1.529-.696 2.696-2 3.5a121.264 121.264 0 0 0-24 .5c.026 8.359.526 16.693 1.5 25 .414.457.914.791 1.5 1 5.546-1.792 11.212-2.292 17-1.5 4.419 4.819 3.752 8.819-2 12-7.558 1.151-14.725-.016-21.5-3.5a367.117 367.117 0 0 1-3.5-33h-9a234.997 234.997 0 0 1-3 33.5c-7.066 2.946-14.399 3.946-22 3-5.327-3.293-5.993-7.293-2-12a48.009 48.009 0 0 1 19 1.5c.616-8.672 1.282-17.338 2-26-7.674.166-15.34 0-23-.5-1.68-.347-2.68-1.347-3-3a156.908 156.908 0 0 0 11-21c-6.736-6.985-6.236-13.818 1.5-20.5.456-5.704.456-11.37 0-17l13-18a8.435 8.435 0 0 0 .5-4 62.777 62.777 0 0 1-17-7 29.358 29.358 0 0 1-9 2c.686 10.454-2.648 19.288-10 26.5-2.124 1.582-4.29 1.749-6.5.5-.542-3.298-.042-6.465 1.5-9.5a68 68 0 0 0-9.5-17.5c-2.614-9.712-.447-18.212 6.5-25.5-2.663-4.648-2.663-9.315 0-14 1.525-1.009 3.192-1.509 5-1.5-1.407-13.865 4.593-22.532 18-26 1.465-3.298 3.798-5.798 7-7.5 5.328-1.956 10.661-3.456 16-4.5Zm4 6c15.405-1.024 29.405 2.81 42 11.5 7.149 7.406 8.316 15.573 3.5 24.5a32.005 32.005 0 0 0-5.5-7.5 169.16 169.16 0 0 1-35-4c-6.063-1.35-11.563-3.85-16.5-7.5-1.261.259-2.261.926-3 2-.14 2.021-.307 3.855-.5 5.5a51.748 51.748 0 0 1-17 6 60.815 60.815 0 0 0-3 5.5c-5.893-9.5-3.893-17 6-22.5l8-1a17.958 17.958 0 0 1 3-7c5.84-2.787 11.84-4.62 18-5.5Zm-9 27a83.982 83.982 0 0 0 15 4.5 33995.34 33995.34 0 0 1 31.5 4.5c4.528 14.458.028 25.291-13.5 32.5-18.087 7.791-34.254 4.958-48.5-8.5-5.127-7.458-6.293-15.458-3.5-24 7.638-.531 13.97-3.531 19-9Zm-37 12c1.808-.009 3.475.491 5 1.5l-2.5.5c-1.376-.184-2.209-.851-2.5-2Zm98 0c1.855-.228 2.688.439 2.5 2-2.634 1.192-3.468.526-2.5-2Zm-91 8h3c.248 7.252 2.914 13.419 8 18.5a330.8 330.8 0 0 1-9.5 2.5 126.765 126.765 0 0 1-3 18 58.505 58.505 0 0 0-8-12c-3.776-7.124-3.11-13.791 2-20a72.647 72.647 0 0 1 7.5-7Zm85 0c8.984 1.14 14.818 6.14 17.5 15 .652 3.094.318 6.094-1 9-3.032 5.02-6.032 10.02-9 15a84.687 84.687 0 0 1-3-18 48.17 48.17 0 0 1-11.5-3.5c4.692-4.884 7.025-10.718 7-17.5Zm-45 32a18.452 18.452 0 0 1 6 .5c-1.918 4.046-.751 6.879 3.5 8.5.27 2.724.77 5.391 1.5 8-6.082 1.302-7.415 4.469-4 9.5 1.973.495 3.973.662 6 .5a64.636 64.636 0 0 0 3 14.5c-1.621 3.378-2.455 6.878-2.5 10.5l8 6a115.984 115.984 0 0 0 8.5 15.5 43.238 43.238 0 0 1-11 1.5c-13.676.023-27.343-.144-41-.5 8.359-.219 10.026-3.552 5-10a14.439 14.439 0 0 0 2.5-5.5c1.077 4.615 3.91 6.115 8.5 4.5a7.93 7.93 0 0 0 1-3.5 55.531 55.531 0 0 0-1.5-6c1.544-2.764 2.71-2.597 3.5.5 7.495 1.187 9.495-1.479 6-8-3.334-1.212-5.834-.379-7.5 2.5-1.796-2.581-1.963-5.248-.5-8 .063-1.981-.604-3.648-2-5a28.043 28.043 0 0 0 1.5-5c1.124 4.615 3.957 6.115 8.5 4.5 1.896-1.808 2.396-3.975 1.5-6.5-3.293-2.811-6.293-2.478-9 1 .64-4.256 1.14-8.589 1.5-13 8.043.497 9.71-2.336 5-8.5a4.934 4.934 0 0 0-3-.5 41.58 41.58 0 0 0 1-8Zm-11 18c.624.417.957 1.084 1 2l-3.5 14c-1.166-5.742-.332-11.075 2.5-16Zm29 0c1.95 1.216 3.451 2.882 4.5 5a49.226 49.226 0 0 1 0 14 131.1 131.1 0 0 1-4.5-19Zm-35 25c.978.311 1.644.978 2 2a19.514 19.514 0 0 1-3 7c-1.22-.387-1.886-1.22-2-2.5a57.984 57.984 0 0 1 3-6.5Zm42 0c1.882 1.739 3.215 3.906 4 6.5-.13 1.059-.63 1.892-1.5 2.5a31.84 31.84 0 0 1-4.5-5l2-4Z"/><path style="opacity:1" d="M66.5 132.5c1.644-.214 3.144.12 4.5 1 1.753 3.719 1.753 7.386 0 11-2.54 1.376-4.54.71-6-2-.847-3.572-.347-6.906 1.5-10ZM96.5 132.5c3.875-.626 5.709 1.041 5.5 5 1.297 3.675.297 6.342-3 8-4.908-3.435-5.742-7.769-2.5-13ZM82.5 143.5c5.656.367 7.49 3.367 5.5 9-3.25 3.749-6.084 3.749-8.5 0a37.795 37.795 0 0 0 3-9Z"/><path style="opacity:1" d="M70.5 154.5a117.095 117.095 0 0 0 13 6c3.783-1.058 7.117-2.891 10-5.5 7.186-.105 7.852 2.228 2 7-8.805 5.015-17.305 4.515-25.5-1.5-.678-2.098-.51-4.098.5-6ZM87.5 210.5c6.258.977 7.591 4.144 4 9.5-6.053.944-8.22-1.556-6.5-7.5.995-.566 1.828-1.233 2.5-2ZM86.5 229.5c6.489-.344 8.489 2.49 6 8.5-6.353 2.399-8.853.232-7.5-6.5.717-.544 1.217-1.211 1.5-2ZM76.5 239.5c7.44-.747 9.44 2.087 6 8.5-7.008.508-9.008-2.325-6-8.5ZM95.5 239.5c7.44-.747 9.44 2.087 6 8.5-7.312.871-9.312-1.962-6-8.5Z"/></svg>